<svg xmlns="http://www.w3.org/2000/svg" version="1.1" xmlns:xlink="http://www.w3.org/1999/xlink" xmlns:svgjs="http://svgjs.dev/svgjs" width="1000" height="251" viewBox="0 0 1000 251"><g transform="matrix(1,0,0,1,0.27797463569913816,-0.3756091292603969)"><svg viewBox="0 0 282 71" data-background-color="#ffffff" preserveAspectRatio="xMidYMid meet" height="251" width="1000" xmlns="http://www.w3.org/2000/svg" xmlns:xlink="http://www.w3.org/1999/xlink"><g id="tight-bounds" transform="matrix(1,0,0,1,-0.07838884726714923,0.10624800070712581)"><svg viewBox="0 0 282.1567768232471 70.7875" height="70.7875" width="282.1567768232471"><g><svg viewBox="0 0 282.1567768232471 70.7875" height="70.7875" width="282.1567768232471"><g><svg viewBox="0 0 282.1567768232471 70.7875" height="70.7875" width="282.1567768232471"><g id="textblocktransform"><svg viewBox="0 0 282.1567768232471 70.7875" height="70.7875" width="282.1567768232471" id="textblock"><g><svg viewBox="0 0 282.1567768232471 70.7875" height="70.7875" width="282.1567768232471"><g><svg><g></g><g></g></svg></g><g><svg><g><svg></svg></g><g></g></svg></g><g id="text-0"><svg viewBox="0 0 282.1567768232471 70.7875" height="70.7875" width="282.1567768232471"><g transform="matrix(1,0,0,1,0,0)"><svg width="222.475" viewBox="6.25 -50 137.5 43.75" height="70.7875" data-palette-color="#ec9131"><path d="M31.25-6.25L18.75-6.25 18.75-25 12.5-25 12.5-31.25 6.25-31.25 6.25-50 18.75-50 18.75-31.25 31.25-31.25 31.25-50 43.75-50 43.75-31.25 37.5-31.25 37.5-25 31.25-25 31.25-6.25ZM75-6.25L62.5-6.25 62.5-18.75 75-18.75 75-6.25ZM137.5-6.25L100-6.25 100-50 137.5-50 137.5-43.75 143.75-43.75 143.75-31.25 137.5-31.25 137.5-25 143.75-25 143.75-12.5 137.5-12.5 137.5-6.25ZM112.5-43.75L112.5-31.25 131.25-31.25 131.25-43.75 112.5-43.75ZM112.5-25L112.5-12.5 131.25-12.5 131.25-25 112.5-25Z" opacity="1" transform="matrix(1,0,0,1,0,0)" fill="#ec9131" class="wordmark-text-0" data-fill-palette-color="primary"></path></svg></g><g><svg xmlns="http://www.w3.org/2000/svg" xmlns:xlink="http://www.w3.org/1999/xlink" version="1.1" x="239.1875" y="7.105427357601002e-15" viewBox="28.93000030517578 15.288999557495117 42.14099884033203 69.4229965209961" enable-background="new 0 0 100 100" xml:space="preserve" height="70.78749999999998" width="42.96927682324712" class="icon-s-0" data-fill-palette-color="accent" id="s-0"><g fill="#98d3df" data-fill-palette-color="accent"><path fill="#98d3df" d="M39.458 15.289c-5.805 0-10.528 4.723-10.528 10.528 0 5.805 4.723 10.527 10.528 10.527 5.805 0 10.527-4.723 10.527-10.527C49.985 20.011 45.263 15.289 39.458 15.289z" data-fill-palette-color="accent"></path><path fill="#98d3df" d="M39.458 43.081c-5.805 0-10.528 4.723-10.528 10.528 0 5.805 4.723 10.527 10.528 10.527 5.805 0 10.527-4.723 10.527-10.527C49.985 47.803 45.262 43.081 39.458 43.081z" data-fill-palette-color="accent"></path><path fill="#98d3df" d="M66.35 30.229c2.603 0 4.721-2.118 4.721-4.722 0-2.603-2.118-4.72-4.721-4.72s-4.721 2.117-4.721 4.72C61.629 28.111 63.747 30.229 66.35 30.229z" data-fill-palette-color="accent"></path><path fill="#98d3df" d="M66.35 47.83c-2.603 0-4.721 2.117-4.721 4.72 0 2.604 2.118 4.722 4.721 4.722s4.721-2.118 4.721-4.722C71.07 49.947 68.953 47.83 66.35 47.83z" data-fill-palette-color="accent"></path><path fill="#98d3df" d="M66.35 74.212c-2.603 0-4.721 2.117-4.721 4.72 0 2.604 2.118 4.722 4.721 4.722s4.721-2.118 4.721-4.722C71.07 76.33 68.953 74.212 66.35 74.212z" data-fill-palette-color="accent"></path><path fill="#98d3df" d="M39.458 75.27c-2.603 0-4.721 2.117-4.721 4.72 0 2.604 2.118 4.722 4.721 4.722s4.721-2.118 4.721-4.722C44.178 77.387 42.061 75.27 39.458 75.27z" data-fill-palette-color="accent"></path></g></svg></g></svg></g></svg></g></svg></g></svg></g><g></g></svg></g><defs></defs></svg><rect width="282.1567768232471" height="70.7875" fill="none" stroke="none" visibility="hidden"></rect></g></svg></g></svg>